<mxfile host="Electron" modified="2023-10-09T10:25:24.309Z" agent="Mozilla/5.0 (X11; Linux x86_64) AppleWebKit/537.36 (KHTML, like Gecko) draw.io/22.0.2 Chrome/114.0.5735.289 Electron/25.8.4 Safari/537.36" etag="ziOwVkJ6X3PzAs4TICFe" version="22.0.2" type="device" pages="2">
  <diagram name="esquema" id="hjMt9iPzKAaseaPtPMlY">
    <mxGraphModel dx="1320" dy="970" grid="1" gridSize="10" guides="1" tooltips="1" connect="1" arrows="1" fold="1" page="1" pageScale="1" pageWidth="1100" pageHeight="850" math="0" shadow="0">
      <root>
        <mxCell id="0" />
        <mxCell id="1" parent="0" />
        <mxCell id="qRvLwgGvRC0xp7tfqWwg-1" value="" style="verticalLabelPosition=bottom;shadow=0;dashed=0;align=center;html=1;verticalAlign=top;shape=mxgraph.electrical.opto_electronics.photo_resistor_3;rotation=-90;strokeColor=#CC6600;" parent="1" vertex="1">
          <mxGeometry x="270" y="440" width="100" height="90" as="geometry" />
        </mxCell>
        <mxCell id="qRvLwgGvRC0xp7tfqWwg-4" value="10 K" style="pointerEvents=1;verticalLabelPosition=bottom;shadow=0;dashed=0;align=center;html=1;verticalAlign=top;shape=mxgraph.electrical.resistors.resistor_2;rotation=-90;" parent="1" vertex="1">
          <mxGeometry x="270" y="300" width="100" height="20" as="geometry" />
        </mxCell>
        <mxCell id="qRvLwgGvRC0xp7tfqWwg-9" value="IC" style="shadow=0;dashed=0;align=center;html=1;strokeWidth=1;shape=mxgraph.electrical.logic_gates.dual_inline_ic;labelNames=a,b,c,d,e,f,g,h,i,j,k,l,m,n,o,p,q,r,s,t;whiteSpace=wrap;" parent="1" vertex="1">
          <mxGeometry x="490" y="270" width="100" height="200" as="geometry" />
        </mxCell>
        <mxCell id="qRvLwgGvRC0xp7tfqWwg-16" value="" style="shape=mxgraph.signs.tech.computer;html=1;pointerEvents=1;fillColor=#000000;strokeColor=none;verticalLabelPosition=bottom;verticalAlign=top;align=center;" parent="1" vertex="1">
          <mxGeometry x="720" y="120" width="220" height="180" as="geometry" />
        </mxCell>
        <mxCell id="qRvLwgGvRC0xp7tfqWwg-17" value="GND" style="pointerEvents=1;verticalLabelPosition=bottom;shadow=0;dashed=0;align=center;html=1;verticalAlign=top;shape=mxgraph.electrical.signal_sources.vss2;fontSize=24;flipV=1;" parent="1" vertex="1">
          <mxGeometry x="290" y="580" width="60" height="40" as="geometry" />
        </mxCell>
        <mxCell id="qRvLwgGvRC0xp7tfqWwg-20" value="" style="endArrow=none;html=1;rounded=0;entryX=0;entryY=0.5;entryDx=0;entryDy=0;entryPerimeter=0;exitX=1;exitY=0.5;exitDx=0;exitDy=0;exitPerimeter=0;" parent="1" source="qRvLwgGvRC0xp7tfqWwg-1" target="qRvLwgGvRC0xp7tfqWwg-4" edge="1">
          <mxGeometry width="50" height="50" relative="1" as="geometry">
            <mxPoint x="320" y="430" as="sourcePoint" />
            <mxPoint x="590" y="490" as="targetPoint" />
          </mxGeometry>
        </mxCell>
        <mxCell id="qRvLwgGvRC0xp7tfqWwg-21" value="" style="endArrow=none;html=1;rounded=0;entryX=0;entryY=0.5;entryDx=0;entryDy=0;entryPerimeter=0;exitX=0.5;exitY=1;exitDx=0;exitDy=0;exitPerimeter=0;" parent="1" source="qRvLwgGvRC0xp7tfqWwg-17" target="qRvLwgGvRC0xp7tfqWwg-1" edge="1">
          <mxGeometry width="50" height="50" relative="1" as="geometry">
            <mxPoint x="300" y="650" as="sourcePoint" />
            <mxPoint x="350" y="600" as="targetPoint" />
          </mxGeometry>
        </mxCell>
        <mxCell id="qRvLwgGvRC0xp7tfqWwg-22" value="" style="endArrow=classic;html=1;rounded=0;entryX=0;entryY=0;entryDx=0;entryDy=130;entryPerimeter=0;fillColor=#cdeb8b;strokeColor=#009900;" parent="1" target="qRvLwgGvRC0xp7tfqWwg-9" edge="1">
          <mxGeometry width="50" height="50" relative="1" as="geometry">
            <mxPoint x="320" y="400" as="sourcePoint" />
            <mxPoint x="330" y="430" as="targetPoint" />
          </mxGeometry>
        </mxCell>
        <mxCell id="qRvLwgGvRC0xp7tfqWwg-23" value="" style="endArrow=classic;startArrow=classic;html=1;rounded=0;entryX=0;entryY=0.5;entryDx=0;entryDy=0;entryPerimeter=0;exitX=0.503;exitY=-0.013;exitDx=0;exitDy=0;exitPerimeter=0;" parent="1" source="qRvLwgGvRC0xp7tfqWwg-9" target="qRvLwgGvRC0xp7tfqWwg-16" edge="1">
          <mxGeometry width="50" height="50" relative="1" as="geometry">
            <mxPoint x="570" y="220" as="sourcePoint" />
            <mxPoint x="620" y="170" as="targetPoint" />
            <Array as="points">
              <mxPoint x="540" y="210" />
            </Array>
          </mxGeometry>
        </mxCell>
        <mxCell id="qRvLwgGvRC0xp7tfqWwg-24" value="USB" style="edgeLabel;html=1;align=center;verticalAlign=middle;resizable=0;points=[];" parent="qRvLwgGvRC0xp7tfqWwg-23" vertex="1" connectable="0">
          <mxGeometry x="0.369" y="2" relative="1" as="geometry">
            <mxPoint as="offset" />
          </mxGeometry>
        </mxCell>
        <mxCell id="qRvLwgGvRC0xp7tfqWwg-29" value="" style="endArrow=none;html=1;rounded=0;" parent="1" edge="1">
          <mxGeometry width="50" height="50" relative="1" as="geometry">
            <mxPoint x="310" y="210" as="sourcePoint" />
            <mxPoint x="320" y="190" as="targetPoint" />
          </mxGeometry>
        </mxCell>
        <mxCell id="qRvLwgGvRC0xp7tfqWwg-30" value="" style="endArrow=none;html=1;rounded=0;" parent="1" edge="1">
          <mxGeometry width="50" height="50" relative="1" as="geometry">
            <mxPoint x="330" y="210" as="sourcePoint" />
            <mxPoint x="320" y="190" as="targetPoint" />
          </mxGeometry>
        </mxCell>
        <mxCell id="qRvLwgGvRC0xp7tfqWwg-31" value="" style="endArrow=none;html=1;rounded=0;" parent="1" edge="1">
          <mxGeometry width="50" height="50" relative="1" as="geometry">
            <mxPoint x="320" y="190" as="sourcePoint" />
            <mxPoint x="320" y="260" as="targetPoint" />
          </mxGeometry>
        </mxCell>
        <mxCell id="qRvLwgGvRC0xp7tfqWwg-32" value="3.3 V" style="edgeLabel;html=1;align=center;verticalAlign=middle;resizable=0;points=[];fontStyle=0;fontSize=20;" parent="qRvLwgGvRC0xp7tfqWwg-31" vertex="1" connectable="0">
          <mxGeometry x="-0.1663" relative="1" as="geometry">
            <mxPoint as="offset" />
          </mxGeometry>
        </mxCell>
        <mxCell id="qRvLwgGvRC0xp7tfqWwg-34" value="" style="html=1;verticalLabelPosition=bottom;align=center;labelBackgroundColor=#ffffff;verticalAlign=top;strokeWidth=2;strokeColor=#36393d;shadow=0;dashed=0;shape=mxgraph.ios7.icons.lightbulb;fillColor=#ffff88;" parent="1" vertex="1">
          <mxGeometry x="180" y="450.15000000000003" width="50" height="69.7" as="geometry" />
        </mxCell>
        <mxCell id="qRvLwgGvRC0xp7tfqWwg-35" value="" style="endArrow=classic;html=1;rounded=0;entryX=0.501;entryY=-0.003;entryDx=0;entryDy=0;entryPerimeter=0;" parent="1" source="qRvLwgGvRC0xp7tfqWwg-34" target="qRvLwgGvRC0xp7tfqWwg-1" edge="1">
          <mxGeometry width="50" height="50" relative="1" as="geometry">
            <mxPoint x="410" y="550" as="sourcePoint" />
            <mxPoint x="270" y="500" as="targetPoint" />
          </mxGeometry>
        </mxCell>
        <mxCell id="qRvLwgGvRC0xp7tfqWwg-42" value="" style="pointerEvents=1;verticalLabelPosition=bottom;shadow=0;dashed=0;align=center;html=1;verticalAlign=top;shape=mxgraph.electrical.miscellaneous.light_bulb;rotation=90;strokeColor=#CC0000;" parent="1" vertex="1">
          <mxGeometry x="770" y="410" width="60" height="50" as="geometry" />
        </mxCell>
        <mxCell id="qRvLwgGvRC0xp7tfqWwg-43" value="" style="pointerEvents=1;verticalLabelPosition=bottom;shadow=0;dashed=0;align=center;html=1;verticalAlign=top;shape=mxgraph.electrical.miscellaneous.light_bulb;rotation=90;strokeColor=#006600;" parent="1" vertex="1">
          <mxGeometry x="910" y="410" width="60" height="50" as="geometry" />
        </mxCell>
        <mxCell id="qRvLwgGvRC0xp7tfqWwg-44" value="" style="pointerEvents=1;verticalLabelPosition=bottom;shadow=0;dashed=0;align=center;html=1;verticalAlign=top;shape=mxgraph.electrical.miscellaneous.light_bulb;rotation=90;strokeColor=#0000FF;" parent="1" vertex="1">
          <mxGeometry x="840" y="410" width="60" height="50" as="geometry" />
        </mxCell>
        <mxCell id="qRvLwgGvRC0xp7tfqWwg-46" style="edgeStyle=orthogonalEdgeStyle;rounded=0;orthogonalLoop=1;jettySize=auto;html=1;exitX=1;exitY=0;exitDx=0;exitDy=110;exitPerimeter=0;entryX=0;entryY=0.5;entryDx=0;entryDy=0;entryPerimeter=0;" parent="1" source="qRvLwgGvRC0xp7tfqWwg-9" target="qRvLwgGvRC0xp7tfqWwg-42" edge="1">
          <mxGeometry relative="1" as="geometry" />
        </mxCell>
        <mxCell id="qRvLwgGvRC0xp7tfqWwg-47" style="edgeStyle=orthogonalEdgeStyle;rounded=0;orthogonalLoop=1;jettySize=auto;html=1;exitX=1;exitY=0;exitDx=0;exitDy=90;exitPerimeter=0;entryX=0;entryY=0.5;entryDx=0;entryDy=0;entryPerimeter=0;" parent="1" source="qRvLwgGvRC0xp7tfqWwg-9" target="qRvLwgGvRC0xp7tfqWwg-44" edge="1">
          <mxGeometry relative="1" as="geometry" />
        </mxCell>
        <mxCell id="qRvLwgGvRC0xp7tfqWwg-48" style="edgeStyle=orthogonalEdgeStyle;rounded=0;orthogonalLoop=1;jettySize=auto;html=1;exitX=1;exitY=0;exitDx=0;exitDy=70;exitPerimeter=0;entryX=0;entryY=0.5;entryDx=0;entryDy=0;entryPerimeter=0;" parent="1" source="qRvLwgGvRC0xp7tfqWwg-9" target="qRvLwgGvRC0xp7tfqWwg-43" edge="1">
          <mxGeometry relative="1" as="geometry" />
        </mxCell>
        <mxCell id="qRvLwgGvRC0xp7tfqWwg-49" value="Fotoresistencia" style="text;html=1;strokeColor=#36393d;fillColor=#ffcc99;align=center;verticalAlign=middle;whiteSpace=wrap;rounded=0;" parent="1" vertex="1">
          <mxGeometry x="380" y="470" width="90" height="30" as="geometry" />
        </mxCell>
        <mxCell id="qRvLwgGvRC0xp7tfqWwg-50" value="Luces monitoras" style="text;html=1;strokeColor=#36393d;fillColor=#eeeeee;align=center;verticalAlign=middle;whiteSpace=wrap;rounded=0;" parent="1" vertex="1">
          <mxGeometry x="810" y="480" width="130" height="30" as="geometry" />
        </mxCell>
        <mxCell id="qRvLwgGvRC0xp7tfqWwg-51" value="Entrada analógicas" style="text;html=1;strokeColor=#36393d;fillColor=#cdeb8b;align=center;verticalAlign=middle;whiteSpace=wrap;rounded=0;" parent="1" vertex="1">
          <mxGeometry x="420" y="360" width="60" height="30" as="geometry" />
        </mxCell>
        <mxCell id="qRvLwgGvRC0xp7tfqWwg-52" value="Salidas digital" style="text;html=1;strokeColor=none;fillColor=none;align=center;verticalAlign=middle;whiteSpace=wrap;rounded=0;" parent="1" vertex="1">
          <mxGeometry x="700" y="310" width="60" height="30" as="geometry" />
        </mxCell>
        <mxCell id="qRvLwgGvRC0xp7tfqWwg-53" value="El porcentaje de Luz detectado en el sensor es del 25 %" style="text;html=1;strokeColor=#36393d;fillColor=#eeeeee;align=left;verticalAlign=middle;whiteSpace=wrap;rounded=0;" parent="1" vertex="1">
          <mxGeometry x="740" y="130" width="180" height="110" as="geometry" />
        </mxCell>
        <mxCell id="qRvLwgGvRC0xp7tfqWwg-54" value="Microcontrolador" style="text;html=1;strokeColor=none;fillColor=none;align=center;verticalAlign=middle;whiteSpace=wrap;rounded=0;" parent="1" vertex="1">
          <mxGeometry x="490" y="470" width="100" height="30" as="geometry" />
        </mxCell>
      </root>
    </mxGraphModel>
  </diagram>
  <diagram id="g5JLZ4euQ82lR4TPCpVT" name="algoritmo">
    <mxGraphModel dx="1320" dy="970" grid="1" gridSize="10" guides="1" tooltips="1" connect="1" arrows="1" fold="1" page="1" pageScale="1" pageWidth="1100" pageHeight="850" math="0" shadow="0">
      <root>
        <mxCell id="0" />
        <mxCell id="1" parent="0" />
        <mxCell id="w_ivEqjEJ0EUp2kRddCD-4" style="edgeStyle=orthogonalEdgeStyle;rounded=0;orthogonalLoop=1;jettySize=auto;html=1;exitX=0.5;exitY=1;exitDx=0;exitDy=0;exitPerimeter=0;entryX=0.5;entryY=0;entryDx=0;entryDy=0;" parent="1" source="amwCYy8vVHqJ8S_3RTdE-1" target="w_ivEqjEJ0EUp2kRddCD-1" edge="1">
          <mxGeometry relative="1" as="geometry" />
        </mxCell>
        <mxCell id="amwCYy8vVHqJ8S_3RTdE-1" value="Inicio de programa" style="strokeWidth=2;html=1;shape=mxgraph.flowchart.start_1;whiteSpace=wrap;fontFamily=Gochi Hand;fontSource=https%3A%2F%2Ffonts.googleapis.com%2Fcss%3Ffamily%3DGochi%2BHand;fontSize=15;" parent="1" vertex="1">
          <mxGeometry x="430" y="10" width="100" height="60" as="geometry" />
        </mxCell>
        <mxCell id="w_ivEqjEJ0EUp2kRddCD-5" style="edgeStyle=orthogonalEdgeStyle;rounded=0;orthogonalLoop=1;jettySize=auto;html=1;exitX=0.5;exitY=1;exitDx=0;exitDy=0;entryX=0.5;entryY=0;entryDx=0;entryDy=0;" parent="1" source="w_ivEqjEJ0EUp2kRddCD-1" target="w_ivEqjEJ0EUp2kRddCD-2" edge="1">
          <mxGeometry relative="1" as="geometry" />
        </mxCell>
        <mxCell id="w_ivEqjEJ0EUp2kRddCD-1" value="Configurar pin analógico&lt;br&gt;(Entrada de información)" style="rounded=1;whiteSpace=wrap;html=1;absoluteArcSize=1;arcSize=14;strokeWidth=2;fontFamily=Gochi Hand;fontSource=https%3A%2F%2Ffonts.googleapis.com%2Fcss%3Ffamily%3DGochi%2BHand;fontSize=15;" parent="1" vertex="1">
          <mxGeometry x="400" y="90" width="160" height="60" as="geometry" />
        </mxCell>
        <mxCell id="w_ivEqjEJ0EUp2kRddCD-6" style="edgeStyle=orthogonalEdgeStyle;rounded=0;orthogonalLoop=1;jettySize=auto;html=1;exitX=0.5;exitY=1;exitDx=0;exitDy=0;entryX=0.5;entryY=0;entryDx=0;entryDy=0;" parent="1" source="w_ivEqjEJ0EUp2kRddCD-2" target="w_ivEqjEJ0EUp2kRddCD-3" edge="1">
          <mxGeometry relative="1" as="geometry" />
        </mxCell>
        <mxCell id="w_ivEqjEJ0EUp2kRddCD-2" value="Configurar pines digitales&lt;br&gt;(Salida de información)" style="rounded=1;whiteSpace=wrap;html=1;absoluteArcSize=1;arcSize=14;strokeWidth=2;fontFamily=Gochi Hand;fontSource=https%3A%2F%2Ffonts.googleapis.com%2Fcss%3Ffamily%3DGochi%2BHand;fontSize=15;" parent="1" vertex="1">
          <mxGeometry x="405" y="180" width="150" height="50" as="geometry" />
        </mxCell>
        <mxCell id="w_ivEqjEJ0EUp2kRddCD-10" style="edgeStyle=orthogonalEdgeStyle;rounded=0;orthogonalLoop=1;jettySize=auto;html=1;exitX=0.5;exitY=1;exitDx=0;exitDy=0;entryX=0.5;entryY=0;entryDx=0;entryDy=0;" parent="1" source="w_ivEqjEJ0EUp2kRddCD-3" target="w_ivEqjEJ0EUp2kRddCD-7" edge="1">
          <mxGeometry relative="1" as="geometry" />
        </mxCell>
        <mxCell id="w_ivEqjEJ0EUp2kRddCD-3" value="Leer pin ADC" style="rounded=1;whiteSpace=wrap;html=1;absoluteArcSize=1;arcSize=14;strokeWidth=2;fontFamily=Gochi Hand;fontSource=https%3A%2F%2Ffonts.googleapis.com%2Fcss%3Ffamily%3DGochi%2BHand;fontSize=15;" parent="1" vertex="1">
          <mxGeometry x="430" y="270" width="100" height="50" as="geometry" />
        </mxCell>
        <mxCell id="w_ivEqjEJ0EUp2kRddCD-7" value="Convertir el valor ADC a porcentaje" style="rounded=1;whiteSpace=wrap;html=1;absoluteArcSize=1;arcSize=14;strokeWidth=2;fontFamily=Gochi Hand;fontSource=https%3A%2F%2Ffonts.googleapis.com%2Fcss%3Ffamily%3DGochi%2BHand;fontSize=15;" parent="1" vertex="1">
          <mxGeometry x="430" y="345" width="100" height="50" as="geometry" />
        </mxCell>
        <mxCell id="w_ivEqjEJ0EUp2kRddCD-9" style="edgeStyle=orthogonalEdgeStyle;rounded=0;orthogonalLoop=1;jettySize=auto;html=1;exitX=0.5;exitY=1;exitDx=0;exitDy=0;exitPerimeter=0;entryX=1;entryY=0.5;entryDx=0;entryDy=0;dashed=1;" parent="1" source="w_ivEqjEJ0EUp2kRddCD-8" target="w_ivEqjEJ0EUp2kRddCD-3" edge="1">
          <mxGeometry relative="1" as="geometry" />
        </mxCell>
        <mxCell id="w_ivEqjEJ0EUp2kRddCD-8" value="Los valores convertidos son enteros de una resolución determinada por el ADC del microcontrolador" style="shape=note;size=20;whiteSpace=wrap;html=1;fontSize=15;fontFamily=Gochi Hand;fontSource=https%3A%2F%2Ffonts.googleapis.com%2Fcss%3Ffamily%3DGochi%2BHand;dashed=1;align=left;" parent="1" vertex="1">
          <mxGeometry x="600" y="130" width="220" height="80" as="geometry" />
        </mxCell>
        <mxCell id="w_ivEqjEJ0EUp2kRddCD-14" style="edgeStyle=orthogonalEdgeStyle;rounded=0;orthogonalLoop=1;jettySize=auto;html=1;exitX=0;exitY=0;exitDx=240;exitDy=130;exitPerimeter=0;entryX=0;entryY=0.5;entryDx=0;entryDy=0;dashed=1;" parent="1" source="w_ivEqjEJ0EUp2kRddCD-13" target="w_ivEqjEJ0EUp2kRddCD-7" edge="1">
          <mxGeometry relative="1" as="geometry" />
        </mxCell>
        <mxCell id="w_ivEqjEJ0EUp2kRddCD-13" value="Tenga presente que es necesario caracterizar el sensor; requiere entonces conocer los valores máximos y mínimos que podrá obtenerse de éste en una configuración específica como también en unas condiciones ambientales. Basado en esa información podrá determinar una ecuación que represente el comportamiento de la variable a medir y entregvar el resultado en un formato que corresponda a las características de la variable física." style="shape=note;size=20;whiteSpace=wrap;html=1;fontSize=15;fontFamily=Gochi Hand;fontSource=https%3A%2F%2Ffonts.googleapis.com%2Fcss%3Ffamily%3DGochi%2BHand;dashed=1;align=left;" parent="1" vertex="1">
          <mxGeometry x="110" y="140" width="240" height="240" as="geometry" />
        </mxCell>
        <mxCell id="mcL9B0IvVQsCD-PF-cvb-3" style="edgeStyle=orthogonalEdgeStyle;rounded=0;orthogonalLoop=1;jettySize=auto;html=1;exitX=1;exitY=0.5;exitDx=0;exitDy=0;exitPerimeter=0;entryX=0.5;entryY=0;entryDx=0;entryDy=0;" parent="1" source="w_ivEqjEJ0EUp2kRddCD-15" target="mcL9B0IvVQsCD-PF-cvb-2" edge="1">
          <mxGeometry relative="1" as="geometry" />
        </mxCell>
        <mxCell id="mcL9B0IvVQsCD-PF-cvb-6" value="Sí" style="edgeLabel;html=1;align=center;verticalAlign=middle;resizable=0;points=[];fontStyle=0;fontSize=15;fontFamily=Gochi Hand;fontSource=https%3A%2F%2Ffonts.googleapis.com%2Fcss%3Ffamily%3DGochi%2BHand;" parent="mcL9B0IvVQsCD-PF-cvb-3" vertex="1" connectable="0">
          <mxGeometry x="-0.304" relative="1" as="geometry">
            <mxPoint as="offset" />
          </mxGeometry>
        </mxCell>
        <mxCell id="w_ivEqjEJ0EUp2kRddCD-15" value="Intensidad de&lt;br&gt;luz &amp;gt; 75 %" style="strokeWidth=2;html=1;shape=mxgraph.flowchart.decision;whiteSpace=wrap;fontSize=15;fontFamily=Gochi Hand;fontSource=https%3A%2F%2Ffonts.googleapis.com%2Fcss%3Ffamily%3DGochi%2BHand;" parent="1" vertex="1">
          <mxGeometry x="420" y="420" width="120" height="100" as="geometry" />
        </mxCell>
        <mxCell id="mcL9B0IvVQsCD-PF-cvb-1" style="edgeStyle=orthogonalEdgeStyle;rounded=0;orthogonalLoop=1;jettySize=auto;html=1;exitX=0.5;exitY=1;exitDx=0;exitDy=0;entryX=0.5;entryY=0;entryDx=0;entryDy=0;entryPerimeter=0;" parent="1" source="w_ivEqjEJ0EUp2kRddCD-7" target="w_ivEqjEJ0EUp2kRddCD-15" edge="1">
          <mxGeometry relative="1" as="geometry" />
        </mxCell>
        <mxCell id="mcL9B0IvVQsCD-PF-cvb-2" value="Encender testigo verde" style="rounded=1;whiteSpace=wrap;html=1;absoluteArcSize=1;arcSize=14;strokeWidth=2;fontFamily=Gochi Hand;fontSource=https%3A%2F%2Ffonts.googleapis.com%2Fcss%3Ffamily%3DGochi%2BHand;fontSize=15;" parent="1" vertex="1">
          <mxGeometry x="550" y="490" width="100" height="50" as="geometry" />
        </mxCell>
        <mxCell id="Mbceo7IjfNneeJ4iRkqo-8" style="edgeStyle=orthogonalEdgeStyle;rounded=0;orthogonalLoop=1;jettySize=auto;html=1;exitX=0.5;exitY=1;exitDx=0;exitDy=0;exitPerimeter=0;entryX=0.5;entryY=0;entryDx=0;entryDy=0;" parent="1" source="mcL9B0IvVQsCD-PF-cvb-4" target="mcL9B0IvVQsCD-PF-cvb-5" edge="1">
          <mxGeometry relative="1" as="geometry" />
        </mxCell>
        <mxCell id="mcL9B0IvVQsCD-PF-cvb-4" value="Visualizar el valor&lt;br&gt;de la intensidad de luz en&lt;br&gt;pantalla" style="strokeWidth=2;html=1;shape=mxgraph.flowchart.display;whiteSpace=wrap;fontSize=16;fontFamily=Gochi Hand;fontSource=https%3A%2F%2Ffonts.googleapis.com%2Fcss%3Ffamily%3DGochi%2BHand;" parent="1" vertex="1">
          <mxGeometry x="345" y="650" width="210" height="70" as="geometry" />
        </mxCell>
        <mxCell id="Mbceo7IjfNneeJ4iRkqo-9" style="edgeStyle=orthogonalEdgeStyle;rounded=0;orthogonalLoop=1;jettySize=auto;html=1;exitX=1;exitY=0.5;exitDx=0;exitDy=0;entryX=0.5;entryY=0;entryDx=0;entryDy=0;" parent="1" source="mcL9B0IvVQsCD-PF-cvb-5" target="w_ivEqjEJ0EUp2kRddCD-3" edge="1">
          <mxGeometry relative="1" as="geometry">
            <Array as="points">
              <mxPoint x="670" y="765" />
              <mxPoint x="670" y="250" />
              <mxPoint x="480" y="250" />
            </Array>
          </mxGeometry>
        </mxCell>
        <mxCell id="mcL9B0IvVQsCD-PF-cvb-5" value="Esperar un tiempo" style="rounded=1;whiteSpace=wrap;html=1;absoluteArcSize=1;arcSize=14;strokeWidth=2;fontFamily=Gochi Hand;fontSource=https%3A%2F%2Ffonts.googleapis.com%2Fcss%3Ffamily%3DGochi%2BHand;fontSize=15;" parent="1" vertex="1">
          <mxGeometry x="400" y="740" width="100" height="50" as="geometry" />
        </mxCell>
        <mxCell id="mcL9B0IvVQsCD-PF-cvb-11" style="edgeStyle=orthogonalEdgeStyle;rounded=0;orthogonalLoop=1;jettySize=auto;html=1;exitX=1;exitY=0.5;exitDx=0;exitDy=0;exitPerimeter=0;entryX=0.5;entryY=0;entryDx=0;entryDy=0;" parent="1" source="mcL9B0IvVQsCD-PF-cvb-8" target="mcL9B0IvVQsCD-PF-cvb-9" edge="1">
          <mxGeometry relative="1" as="geometry" />
        </mxCell>
        <mxCell id="mcL9B0IvVQsCD-PF-cvb-13" value="Sí" style="edgeLabel;html=1;align=center;verticalAlign=middle;resizable=0;points=[];fontSize=15;fontFamily=Gochi Hand;fontSource=https%3A%2F%2Ffonts.googleapis.com%2Fcss%3Ffamily%3DGochi%2BHand;" parent="mcL9B0IvVQsCD-PF-cvb-11" vertex="1" connectable="0">
          <mxGeometry x="-0.5467" y="4" relative="1" as="geometry">
            <mxPoint as="offset" />
          </mxGeometry>
        </mxCell>
        <mxCell id="Mbceo7IjfNneeJ4iRkqo-4" style="edgeStyle=orthogonalEdgeStyle;rounded=0;orthogonalLoop=1;jettySize=auto;html=1;exitX=0;exitY=0.5;exitDx=0;exitDy=0;exitPerimeter=0;entryX=0.5;entryY=0;entryDx=0;entryDy=0;" parent="1" source="mcL9B0IvVQsCD-PF-cvb-8" target="Mbceo7IjfNneeJ4iRkqo-2" edge="1">
          <mxGeometry relative="1" as="geometry" />
        </mxCell>
        <mxCell id="Mbceo7IjfNneeJ4iRkqo-14" value="No" style="edgeLabel;html=1;align=center;verticalAlign=middle;resizable=0;points=[];fontSize=15;fontFamily=Gochi Hand;fontSource=https%3A%2F%2Ffonts.googleapis.com%2Fcss%3Ffamily%3DGochi%2BHand;" parent="Mbceo7IjfNneeJ4iRkqo-4" vertex="1" connectable="0">
          <mxGeometry x="0.145" y="-2" relative="1" as="geometry">
            <mxPoint as="offset" />
          </mxGeometry>
        </mxCell>
        <mxCell id="mcL9B0IvVQsCD-PF-cvb-8" value="Intensidad de&lt;br&gt;luz &amp;gt; 50 %" style="strokeWidth=2;html=1;shape=mxgraph.flowchart.decision;whiteSpace=wrap;fontSize=15;fontFamily=Gochi Hand;fontSource=https%3A%2F%2Ffonts.googleapis.com%2Fcss%3Ffamily%3DGochi%2BHand;" parent="1" vertex="1">
          <mxGeometry x="260" y="490" width="120" height="100" as="geometry" />
        </mxCell>
        <mxCell id="mcL9B0IvVQsCD-PF-cvb-9" value="Encender testigo amarillo" style="rounded=1;whiteSpace=wrap;html=1;absoluteArcSize=1;arcSize=14;strokeWidth=2;fontFamily=Gochi Hand;fontSource=https%3A%2F%2Ffonts.googleapis.com%2Fcss%3Ffamily%3DGochi%2BHand;fontSize=15;" parent="1" vertex="1">
          <mxGeometry x="400" y="560" width="100" height="50" as="geometry" />
        </mxCell>
        <mxCell id="mcL9B0IvVQsCD-PF-cvb-12" style="edgeStyle=orthogonalEdgeStyle;rounded=0;orthogonalLoop=1;jettySize=auto;html=1;exitX=0.5;exitY=1;exitDx=0;exitDy=0;entryX=0.5;entryY=0;entryDx=0;entryDy=0;entryPerimeter=0;" parent="1" source="mcL9B0IvVQsCD-PF-cvb-9" target="mcL9B0IvVQsCD-PF-cvb-4" edge="1">
          <mxGeometry relative="1" as="geometry" />
        </mxCell>
        <mxCell id="Mbceo7IjfNneeJ4iRkqo-5" style="edgeStyle=orthogonalEdgeStyle;rounded=0;orthogonalLoop=1;jettySize=auto;html=1;exitX=1;exitY=0.5;exitDx=0;exitDy=0;entryX=0.5;entryY=0;entryDx=0;entryDy=0;entryPerimeter=0;" parent="1" source="Mbceo7IjfNneeJ4iRkqo-2" target="mcL9B0IvVQsCD-PF-cvb-4" edge="1">
          <mxGeometry relative="1" as="geometry">
            <mxPoint x="480" y="690" as="targetPoint" />
            <Array as="points">
              <mxPoint x="450" y="625" />
            </Array>
          </mxGeometry>
        </mxCell>
        <mxCell id="Mbceo7IjfNneeJ4iRkqo-2" value="Encender testigo rojo" style="rounded=1;whiteSpace=wrap;html=1;absoluteArcSize=1;arcSize=14;strokeWidth=2;fontFamily=Gochi Hand;fontSource=https%3A%2F%2Ffonts.googleapis.com%2Fcss%3Ffamily%3DGochi%2BHand;fontSize=15;" parent="1" vertex="1">
          <mxGeometry x="190" y="600" width="100" height="50" as="geometry" />
        </mxCell>
        <mxCell id="Mbceo7IjfNneeJ4iRkqo-3" style="edgeStyle=orthogonalEdgeStyle;rounded=0;orthogonalLoop=1;jettySize=auto;html=1;exitX=0;exitY=0.5;exitDx=0;exitDy=0;exitPerimeter=0;entryX=0.5;entryY=0;entryDx=0;entryDy=0;entryPerimeter=0;" parent="1" source="w_ivEqjEJ0EUp2kRddCD-15" target="mcL9B0IvVQsCD-PF-cvb-8" edge="1">
          <mxGeometry relative="1" as="geometry" />
        </mxCell>
        <mxCell id="Mbceo7IjfNneeJ4iRkqo-11" value="No" style="edgeLabel;html=1;align=center;verticalAlign=middle;resizable=0;points=[];fontSize=15;fontFamily=Gochi Hand;fontSource=https%3A%2F%2Ffonts.googleapis.com%2Fcss%3Ffamily%3DGochi%2BHand;" parent="Mbceo7IjfNneeJ4iRkqo-3" vertex="1" connectable="0">
          <mxGeometry x="0.0033" y="-1" relative="1" as="geometry">
            <mxPoint as="offset" />
          </mxGeometry>
        </mxCell>
        <mxCell id="Mbceo7IjfNneeJ4iRkqo-7" style="edgeStyle=orthogonalEdgeStyle;rounded=0;orthogonalLoop=1;jettySize=auto;html=1;exitX=0.5;exitY=1;exitDx=0;exitDy=0;entryX=0.5;entryY=0;entryDx=0;entryDy=0;entryPerimeter=0;" parent="1" source="mcL9B0IvVQsCD-PF-cvb-2" target="mcL9B0IvVQsCD-PF-cvb-4" edge="1">
          <mxGeometry relative="1" as="geometry">
            <Array as="points">
              <mxPoint x="600" y="630" />
              <mxPoint x="450" y="630" />
            </Array>
          </mxGeometry>
        </mxCell>
        <mxCell id="Mbceo7IjfNneeJ4iRkqo-10" value="Fin" style="strokeWidth=2;html=1;shape=mxgraph.flowchart.start_1;whiteSpace=wrap;fontFamily=Gochi Hand;fontSource=https%3A%2F%2Ffonts.googleapis.com%2Fcss%3Ffamily%3DGochi%2BHand;fontSize=15;" parent="1" vertex="1">
          <mxGeometry x="417.5" y="810" width="72.5" height="30" as="geometry" />
        </mxCell>
      </root>
    </mxGraphModel>
  </diagram>
</mxfile>
